<?xml version="1.0" standalone="no"?>
<!DOCTYPE svg PUBLIC "-//W3C//DTD SVG 20010904//EN"
 "http://www.w3.org/TR/2001/REC-SVG-20010904/DTD/svg10.dtd">
<svg version="1.0" xmlns="http://www.w3.org/2000/svg"
 width="607.000000pt" height="605.000000pt" viewBox="0 0 607.000000 605.000000"
 preserveAspectRatio="xMidYMid meet">
<metadata>
Created by potrace 1.15, written by Peter Selinger 2001-2017
</metadata>
<g transform="translate(0.000000,605.000000) scale(0.100000,-0.100000)"
fill="#000000" stroke="none">
<path d="M718 6031 c-151 -41 -296 -129 -424 -256 -156 -155 -232 -289 -279
-490 -13 -59 -15 -317 -15 -2254 0 -2187 0 -2187 21 -2270 30 -117 71 -211
133 -305 57 -85 207 -239 289 -295 68 -46 198 -106 292 -133 l80 -23 2220 0
2220 0 88 28 c167 52 277 118 410 247 169 162 251 312 297 543 20 97 20 143
20 2212 0 2069 0 2115 -20 2212 -45 226 -116 360 -280 524 -120 121 -213 182
-375 246 l-70 28 -2270 2 c-2165 2 -2273 1 -2337 -16z m2483 -486 c257 -45
500 -189 690 -408 266 -307 422 -721 446 -1182 l7 -130 70 -34 c101 -49 228
-177 279 -282 69 -141 68 -121 65 -1082 -4 -981 2 -906 -93 -1102 -66 -135
-126 -215 -249 -333 -366 -349 -993 -538 -1601 -482 -664 62 -1204 367 -1420
805 -103 208 -98 159 -103 1090 -2 562 0 836 8 895 28 211 154 393 340 489
l80 42 0 97 c0 186 36 393 106 602 182 546 571 933 1021 1014 104 19 251 19
354 1z"/>
<path d="M2875 4935 c-208 -56 -373 -209 -486 -449 -71 -151 -119 -359 -122
-529 l-2 -92 765 0 765 0 -3 75 c-20 507 -271 914 -614 995 -78 18 -236 18
-303 0z"/>
<path d="M2670 3345 c-238 -34 -478 -91 -598 -141 -18 -8 -39 -14 -48 -14 -30
0 -64 -47 -64 -88 0 -42 17 -102 29 -102 4 0 13 24 20 54 7 30 18 60 26 66 16
13 154 61 245 84 36 10 83 22 105 28 135 36 427 67 640 67 206 0 501 -30 640
-67 145 -38 244 -67 267 -79 37 -18 82 -16 108 5 21 17 20 18 -122 64 -79 26
-172 53 -208 61 -36 8 -87 20 -115 27 -27 6 -84 15 -125 21 -41 5 -104 13
-140 19 -95 14 -546 11 -660 -5z"/>
<path d="M2775 3216 c-5 -2 -50 -9 -100 -15 -49 -7 -128 -19 -175 -28 -74 -13
-116 -23 -265 -63 -16 -5 -52 -17 -80 -27 -46 -17 -51 -23 -66 -70 -9 -27 -20
-74 -24 -102 -7 -52 -7 -52 36 -92 23 -21 48 -39 54 -39 7 0 16 35 23 87 6 48
18 93 26 101 13 14 83 35 216 67 370 90 814 91 1203 4 l88 -20 65 31 c35 16
69 30 74 30 6 0 10 4 10 9 0 9 -80 36 -150 51 -19 4 -71 15 -114 25 -190 40
-262 47 -536 51 -151 2 -279 2 -285 0z"/>
<path d="M4200 3145 c-19 -19 -37 -35 -42 -35 -4 0 -32 -16 -63 -35 -30 -19
-65 -39 -77 -44 -13 -5 -52 -22 -88 -39 -36 -16 -76 -33 -90 -37 -71 -21 -268
-132 -278 -157 -2 -5 -7 -6 -11 -4 -4 3 -35 -23 -69 -57 -65 -67 -136 -187
-148 -253 -3 -21 -11 -48 -17 -59 -7 -12 -14 -133 -18 -295 -5 -187 -12 -293
-22 -331 -21 -82 -53 -163 -82 -209 -14 -22 -25 -43 -25 -48 0 -5 -33 -45 -74
-89 -99 -106 -203 -177 -341 -233 -29 -12 -29 -12 -10 -26 71 -51 124 -86 150
-99 17 -8 48 -26 70 -40 22 -13 48 -24 57 -25 24 0 159 71 208 110 21 16 41
30 46 30 4 0 33 23 65 50 32 27 61 50 66 50 10 0 203 194 203 204 0 4 23 33
50 65 28 32 50 61 50 66 0 4 10 22 23 39 45 60 136 229 137 253 0 6 7 24 15
40 7 15 22 49 32 75 10 27 24 48 30 48 7 0 18 9 25 20 7 11 18 20 25 20 26 0
124 152 108 169 -4 3 -14 -3 -23 -14 -21 -25 -107 -95 -117 -95 -4 0 -26 -13
-49 -28 -22 -15 -57 -34 -76 -42 -19 -8 -37 -16 -40 -19 -3 -3 -23 -15 -45
-25 -77 -38 -151 -89 -212 -150 -35 -33 -63 -66 -63 -72 0 -6 -7 -17 -15 -24
-8 -7 -15 -20 -15 -28 0 -10 20 3 53 36 29 29 56 52 61 52 4 0 25 13 45 28 36
29 141 82 160 82 23 0 18 -22 -24 -106 -56 -111 -71 -137 -118 -202 -20 -29
-37 -57 -37 -62 0 -14 -297 -310 -310 -310 -6 0 -36 -19 -66 -41 -60 -46 -101
-71 -154 -95 -33 -16 -37 -15 -77 6 -24 13 -43 28 -43 34 0 6 26 22 58 36 64
28 224 178 258 242 10 20 36 68 57 107 34 64 51 118 77 236 5 22 14 135 20
250 19 367 26 414 84 513 18 30 57 72 69 72 5 0 27 15 50 34 44 35 197 122
257 146 19 7 40 17 45 21 6 4 39 22 74 39 71 35 69 34 129 86 23 20 42 41 42
47 0 5 6 15 14 21 13 10 76 119 76 131 0 13 -19 2 -50 -30z"/>
<path d="M1888 3145 c-4 -11 -12 -55 -19 -97 -23 -151 25 -284 149 -406 41
-40 84 -78 95 -83 12 -5 36 -18 52 -28 17 -10 68 -33 115 -51 394 -149 535
-243 614 -410 28 -60 31 -73 31 -170 -1 -82 -6 -119 -23 -171 -45 -131 -145
-247 -242 -281 -37 -12 -51 -2 -139 106 -120 148 -159 225 -108 211 129 -36
229 -103 251 -170 l14 -39 12 41 c15 49 3 94 -35 136 -33 35 -80 58 -202 101
-139 49 -160 56 -231 83 -35 14 -65 23 -67 21 -3 -3 106 -204 167 -308 56 -98
259 -333 297 -345 23 -7 128 27 194 62 77 42 186 155 229 238 53 103 74 234
58 352 -37 261 -160 414 -423 522 -117 48 -146 59 -232 81 -153 40 -259 91
-353 170 -124 105 -183 217 -192 365 -3 52 -8 82 -12 70z"/>
<path d="M2673 3006 c-29 -7 -68 -25 -89 -41 -20 -16 -68 -36 -112 -47 -139
-36 -192 -77 -192 -151 0 -40 41 -117 62 -117 5 0 6 5 3 11 -13 20 5 59 35 74
51 26 132 17 229 -27 60 -27 140 -110 177 -182 16 -32 38 -64 49 -70 36 -20
130 -94 156 -122 15 -16 43 -53 63 -83 43 -63 45 -49 10 51 -82 233 -205 390
-366 467 -54 25 -173 61 -205 61 -13 0 -23 4 -23 10 0 19 57 25 229 25 l175
-1 -54 24 c-66 28 -57 46 19 36 32 -4 84 -24 134 -51 45 -24 119 -61 165 -83
45 -22 82 -46 82 -53 0 -8 -7 -36 -15 -63 -20 -66 -29 -194 -20 -287 7 -76 25
-98 25 -31 0 111 69 302 143 394 l36 44 -47 19 c-55 22 -79 32 -187 82 -201
93 -226 102 -312 115 -87 12 -103 12 -170 -4z"/>
<path d="M4220 2919 c-36 -38 -70 -69 -76 -69 -6 0 -17 -7 -24 -15 -13 -15
-158 -112 -200 -133 -14 -7 -41 -22 -61 -35 -20 -12 -62 -37 -92 -55 -82 -49
-190 -167 -216 -237 -12 -31 -19 -60 -16 -65 3 -5 1 -11 -5 -15 -5 -3 -10 -12
-10 -18 0 -7 7 -3 16 8 70 93 266 256 356 295 13 6 56 30 96 55 41 25 77 45
82 45 4 0 42 32 83 70 71 66 117 137 141 218 11 35 -4 25 -74 -49z"/>
<path d="M1752 2861 c-16 -89 5 -206 52 -299 28 -54 116 -152 174 -191 67 -46
181 -98 297 -135 66 -22 134 -45 152 -53 17 -7 36 -13 43 -13 23 0 186 -84
236 -122 29 -21 64 -57 80 -79 35 -51 43 -36 13 23 -60 118 -194 226 -369 295
-68 27 -205 73 -219 73 -7 0 -55 20 -105 45 -193 94 -295 230 -326 435 -6 41
-12 76 -14 78 -2 1 -8 -24 -14 -57z"/>
<path d="M4200 2617 c0 -13 -82 -97 -95 -97 -4 0 -30 -19 -58 -42 -27 -24 -62
-50 -77 -58 -43 -23 -211 -119 -250 -142 -58 -34 -147 -116 -179 -165 -44 -65
-40 -86 7 -42 46 45 76 63 254 152 177 89 246 134 314 202 69 68 131 205 94
205 -5 0 -10 -6 -10 -13z"/>
<path d="M1950 2241 c0 -20 20 -57 47 -87 65 -70 178 -129 328 -169 55 -15
114 -31 130 -35 173 -48 265 -117 311 -235 16 -42 16 45 -1 94 -34 103 -136
171 -375 251 -156 52 -298 112 -371 156 -60 36 -69 39 -69 25z"/>
<path d="M4060 2040 c0 -5 -7 -10 -15 -10 -13 0 -55 -75 -55 -99 0 -6 -10 -32
-22 -58 -40 -89 -93 -198 -101 -208 -19 -25 -57 -86 -57 -92 0 -3 -16 -25 -35
-49 -19 -23 -35 -45 -35 -47 0 -16 -287 -317 -303 -317 -4 0 -39 -25 -76 -55
-38 -30 -71 -55 -74 -55 -6 0 -68 -39 -92 -57 -18 -14 -160 -83 -170 -83 -16
0 -155 72 -208 108 -26 17 -51 32 -54 32 -3 0 -34 23 -69 50 -35 28 -67 50
-72 50 -14 0 -282 272 -282 286 0 7 -3 14 -7 16 -9 4 -93 115 -93 123 0 3 -15
26 -33 52 -34 49 -125 230 -147 293 -26 74 -34 87 -62 103 -33 19 -33 18 -12
-31 8 -20 22 -57 31 -82 13 -37 64 -145 137 -287 6 -13 14 -23 19 -23 4 0 7
-5 7 -10 0 -6 12 -28 28 -49 15 -21 34 -49 42 -62 57 -86 332 -363 379 -380
10 -4 21 -14 24 -23 4 -9 12 -16 19 -16 7 -1 29 -14 48 -30 19 -17 38 -30 43
-30 5 0 27 -13 50 -28 23 -16 80 -48 126 -72 l83 -43 67 32 c84 41 196 107
242 143 20 15 42 28 48 28 6 0 16 9 23 20 7 11 19 20 26 20 18 0 332 316 332
335 0 8 4 15 8 15 8 0 25 24 92 125 52 77 98 168 160 310 12 28 60 157 60 163
0 1 -4 2 -10 2 -5 0 -10 -4 -10 -10z"/>
</g>
</svg>
